<svg width="15" height="17" viewBox="0 0 15 17" fill="none" xmlns="http://www.w3.org/2000/svg">
<path d="M13.8 4.5V12.5C13.8 15.7 13 16.5 9.8 16.5H5C1.8 16.5 1 15.7 1 12.5V4.5C1 1.3 1.8 0.5 5 0.5H9.8C13 0.5 13.8 1.3 13.8 4.5Z" stroke="#FF0083" stroke-linecap="round" stroke-linejoin="round"/>
<path d="M8.9998 3.30005H5.7998" stroke="#FF0083" stroke-linecap="round" stroke-linejoin="round"/>
<path d="M7.40016 14.18C8.08499 14.18 8.64016 13.6248 8.64016 12.94C8.64016 12.2551 8.08499 11.7 7.40016 11.7C6.71532 11.7 6.16016 12.2551 6.16016 12.94C6.16016 13.6248 6.71532 14.18 7.40016 14.18Z" stroke="#FF0083" stroke-linecap="round" stroke-linejoin="round"/>
</svg>
