<svg width="14" height="14" viewBox="0 0 14 14" fill="none" xmlns="http://www.w3.org/2000/svg">
    <path
        d="M9.91699 13.2708H4.08366C1.51116 13.2708 0.729492 12.4891 0.729492 9.91663V4.08329C0.729492 1.51079 1.51116 0.729126 4.08366 0.729126H4.95866C5.97949 0.729126 6.30033 1.06163 6.70866 1.60413L7.58366 2.77079C7.77616 3.02746 7.80533 3.06246 8.16699 3.06246H9.91699C12.4895 3.06246 13.2712 3.84413 13.2712 6.41663V9.91663C13.2712 12.4891 12.4895 13.2708 9.91699 13.2708ZM4.08366 1.60413C1.99533 1.60413 1.60449 2.00079 1.60449 4.08329V9.91663C1.60449 11.9991 1.99533 12.3958 4.08366 12.3958H9.91699C12.0053 12.3958 12.3962 11.9991 12.3962 9.91663V6.41663C12.3962 4.33413 12.0053 3.93746 9.91699 3.93746H8.16699C7.42033 3.93746 7.17533 3.68079 6.88366 3.29579L6.00866 2.12913C5.70533 1.72663 5.61199 1.60413 4.95866 1.60413H4.08366Z"
        fill="white" />
    <path
        d="M11.667 4.15913C11.4278 4.15913 11.2295 3.96079 11.2295 3.72163V2.91663C11.2295 1.99496 10.8387 1.60413 9.91699 1.60413H4.66699C4.42783 1.60413 4.22949 1.40579 4.22949 1.16663C4.22949 0.927459 4.42783 0.729126 4.66699 0.729126H9.91699C11.3287 0.729126 12.1045 1.50496 12.1045 2.91663V3.72163C12.1045 3.96079 11.9062 4.15913 11.667 4.15913Z"
        fill="white" />
</svg>
    