<svg width="14" height="14" viewBox="0 0 14 14" fill="none" xmlns="http://www.w3.org/2000/svg">
    <path
        d="M10.1733 8.9658C10.0625 8.9658 9.95168 8.92497 9.86418 8.83747C9.69501 8.6683 9.69501 8.3883 9.86418 8.21913L11.0483 7.03497L9.86418 5.8508C9.69501 5.68163 9.69501 5.40163 9.86418 5.23247C10.0333 5.0633 10.3133 5.0633 10.4825 5.23247L11.9758 6.7258C12.145 6.89497 12.145 7.17497 11.9758 7.34413L10.4825 8.83747C10.395 8.92497 10.2842 8.9658 10.1733 8.9658Z"
        fill="white" />
    <path
        d="M11.6259 7.47253H5.69336C5.45419 7.47253 5.25586 7.2742 5.25586 7.03503C5.25586 6.79587 5.45419 6.59753 5.69336 6.59753H11.6259C11.865 6.59753 12.0634 6.79587 12.0634 7.03503C12.0634 7.2742 11.865 7.47253 11.6259 7.47253Z"
        fill="white" />
    <path
        d="M6.86003 12.1042C3.85586 12.1042 1.75586 10.0042 1.75586 7.00004C1.75586 3.99587 3.85586 1.89587 6.86003 1.89587C7.09919 1.89587 7.29753 2.09421 7.29753 2.33337C7.29753 2.57254 7.09919 2.77087 6.86003 2.77087C4.36919 2.77087 2.63086 4.50921 2.63086 7.00004C2.63086 9.49087 4.36919 11.2292 6.86003 11.2292C7.09919 11.2292 7.29753 11.4275 7.29753 11.6667C7.29753 11.9059 7.09919 12.1042 6.86003 12.1042Z"
        fill="white" />
</svg>
    