<svg width="14" height="14" viewBox="0 0 14 14" fill="none" xmlns="http://www.w3.org/2000/svg">
    <path
        d="M6.98275 13.2708C3.52941 13.2708 0.711914 10.4591 0.711914 6.99996C0.711914 3.54079 3.52941 0.729126 6.98275 0.729126C10.4361 0.729126 13.2536 3.54079 13.2536 6.99996C13.2536 10.4591 10.4419 13.2708 6.98275 13.2708ZM6.98275 1.60413C4.00775 1.60413 1.58691 4.02496 1.58691 6.99996C1.58691 9.97496 4.00775 12.3958 6.98275 12.3958C9.95775 12.3958 12.3786 9.97496 12.3786 6.99996C12.3786 4.02496 9.95775 1.60413 6.98275 1.60413Z"
        fill="white" />
    <path
        d="M5.83949 9.30413H5.08116C4.54449 9.30413 4.22949 8.99497 4.22949 8.4758V5.52413C4.22949 5.00497 4.55033 4.6958 5.08116 4.6958H5.83366C6.37033 4.6958 6.68533 5.00497 6.68533 5.52413V8.4758C6.69116 8.99497 6.37033 9.30413 5.83949 9.30413ZM5.10449 8.42913H5.81616V5.5708H5.11033L5.10449 8.42913Z"
        fill="white" />
    <path
        d="M8.9196 9.30413H8.1671C7.63043 9.30413 7.31543 8.99497 7.31543 8.4758V5.52413C7.31543 5.00497 7.63626 4.6958 8.1671 4.6958H8.9196C9.45626 4.6958 9.77126 5.00497 9.77126 5.52413V8.4758C9.77126 8.99497 9.45043 9.30413 8.9196 9.30413ZM8.1846 8.42913H8.89626V5.5708H8.19043L8.1846 8.42913Z"
        fill="white" />
</svg>
    