<svg width="22" height="22" viewBox="0 0 22 22" fill="none" xmlns="http://www.w3.org/2000/svg">
    <path
        d="M11.0003 11.6875C8.09449 11.6875 5.72949 9.32248 5.72949 6.41665C5.72949 3.51081 8.09449 1.14581 11.0003 1.14581C13.9062 1.14581 16.2712 3.51081 16.2712 6.41665C16.2712 9.32248 13.9062 11.6875 11.0003 11.6875ZM11.0003 2.52081C8.85533 2.52081 7.10449 4.27165 7.10449 6.41665C7.10449 8.56165 8.85533 10.3125 11.0003 10.3125C13.1453 10.3125 14.8962 8.56165 14.8962 6.41665C14.8962 4.27165 13.1453 2.52081 11.0003 2.52081Z"
        fill="white" />
    <path
        d="M18.8743 20.8542C18.4985 20.8542 18.1868 20.5425 18.1868 20.1667C18.1868 17.0042 14.9601 14.4375 11.0001 14.4375C7.04014 14.4375 3.81348 17.0042 3.81348 20.1667C3.81348 20.5425 3.50181 20.8542 3.12598 20.8542C2.75014 20.8542 2.43848 20.5425 2.43848 20.1667C2.43848 16.2525 6.27931 13.0625 11.0001 13.0625C15.721 13.0625 19.5618 16.2525 19.5618 20.1667C19.5618 20.5425 19.2501 20.8542 18.8743 20.8542Z"
        fill="white" />
</svg>
    