<svg width="14" height="14" viewBox="0 0 14 14" fill="none" xmlns="http://www.w3.org/2000/svg">
    <path
        d="M6.99967 13.2708C4.66634 13.2708 2.77051 11.5966 2.77051 9.53748V7.37915C2.77051 7.13998 2.96884 6.94165 3.20801 6.94165C3.44717 6.94165 3.64551 7.13998 3.64551 7.37915C3.64551 8.90748 5.08634 10.0625 6.99967 10.0625C8.91301 10.0625 10.3538 8.90748 10.3538 7.37915C10.3538 7.13998 10.5522 6.94165 10.7913 6.94165C11.0305 6.94165 11.2288 7.13998 11.2288 7.37915V9.53748C11.2288 11.5966 9.33301 13.2708 6.99967 13.2708ZM3.64551 9.60165C3.68634 11.1475 5.17384 12.3958 6.99967 12.3958C8.82551 12.3958 10.313 11.1475 10.3538 9.60165C9.59551 10.4241 8.39384 10.9375 6.99967 10.9375C5.60551 10.9375 4.40967 10.4241 3.64551 9.60165Z"
        fill="white" />
    <path
        d="M6.99967 8.02079C5.38967 8.02079 3.943 7.29746 3.23717 6.13079C2.93383 5.63496 2.77051 5.05746 2.77051 4.46246C2.77051 3.45913 3.21968 2.51413 4.03051 1.80246C4.82384 1.10829 5.87967 0.729126 6.99967 0.729126C8.11967 0.729126 9.16967 1.10829 9.96884 1.79663C10.7797 2.51413 11.2288 3.45913 11.2288 4.46246C11.2288 5.05746 11.0655 5.62912 10.7622 6.13079C10.0563 7.29746 8.60967 8.02079 6.99967 8.02079ZM6.99967 1.60413C6.08967 1.60413 5.23802 1.90746 4.60218 2.46746C3.98385 3.00413 3.64551 3.71579 3.64551 4.46246C3.64551 4.89996 3.76217 5.30829 3.98383 5.67579C4.538 6.58579 5.69301 7.14579 6.99967 7.14579C8.30634 7.14579 9.46135 6.57996 10.0155 5.67579C10.243 5.30829 10.3538 4.89996 10.3538 4.46246C10.3538 3.71579 10.0155 3.00413 9.39134 2.45579C8.75551 1.90746 7.90967 1.60413 6.99967 1.60413Z"
        fill="white" />
    <path
        d="M6.99967 10.9375C4.59051 10.9375 2.77051 9.40913 2.77051 7.37913V4.46246C2.77051 2.40329 4.66634 0.729126 6.99967 0.729126C8.11967 0.729126 9.16967 1.10829 9.96884 1.79663C10.7797 2.51413 11.2288 3.45913 11.2288 4.46246V7.37913C11.2288 9.40913 9.40884 10.9375 6.99967 10.9375ZM6.99967 1.60413C5.15051 1.60413 3.64551 2.88746 3.64551 4.46246V7.37913C3.64551 8.90746 5.08634 10.0625 6.99967 10.0625C8.91301 10.0625 10.3538 8.90746 10.3538 7.37913V4.46246C10.3538 3.71579 10.0155 3.00413 9.39134 2.45579C8.75551 1.90746 7.90967 1.60413 6.99967 1.60413Z"
        fill="white" />
</svg>
    