<svg width="14" height="14" viewBox="0 0 14 14" fill="none" xmlns="http://www.w3.org/2000/svg">
    <path
        d="M5.82702 13.2709C5.71035 13.2709 5.61702 13.2475 5.54702 13.2184C5.31368 13.1309 4.91702 12.845 4.91702 11.9409V8.17837H3.55202C2.77035 8.17837 2.49035 7.81087 2.39118 7.59503C2.29202 7.37337 2.20452 6.9242 2.71785 6.33503L7.13368 1.31837C7.72868 0.641701 8.21285 0.688368 8.44618 0.775868C8.67952 0.863368 9.07618 1.1492 9.07618 2.05337V5.81587H10.4412C11.2228 5.81587 11.5028 6.18337 11.602 6.3992C11.7012 6.62087 11.7887 7.07003 11.2753 7.6592L6.85952 12.6759C6.44535 13.1484 6.08368 13.2709 5.82702 13.2709ZM8.12535 1.59837C8.10785 1.6217 7.98535 1.68003 7.79285 1.9017L3.37702 6.91837C3.21368 7.10503 3.19035 7.2217 3.19035 7.24503C3.20202 7.25087 3.30702 7.3092 3.55202 7.3092H5.35452C5.59368 7.3092 5.79202 7.50753 5.79202 7.7467V11.9467C5.79202 12.2384 5.84452 12.3667 5.86785 12.4017C5.88535 12.3784 6.00785 12.32 6.20035 12.0984L10.6162 7.0817C10.7795 6.89503 10.8028 6.77837 10.8028 6.75503C10.7912 6.7492 10.6862 6.69087 10.4412 6.69087H8.63868C8.39952 6.69087 8.20118 6.49253 8.20118 6.25337V2.05337C8.20702 1.7617 8.14868 1.6392 8.12535 1.59837Z"
        fill="white" />
</svg>
    