<svg width="14" height="14" viewBox="0 0 14 14" fill="none" xmlns="http://www.w3.org/2000/svg">
    <path
        d="M10.5 6.27079C10.2608 6.27079 10.0625 6.07246 10.0625 5.83329V4.66663C10.0625 2.82913 9.54333 1.60413 7 1.60413C4.45667 1.60413 3.9375 2.82913 3.9375 4.66663V5.83329C3.9375 6.07246 3.73917 6.27079 3.5 6.27079C3.26083 6.27079 3.0625 6.07246 3.0625 5.83329V4.66663C3.0625 2.97496 3.47083 0.729126 7 0.729126C10.5292 0.729126 10.9375 2.97496 10.9375 4.66663V5.83329C10.9375 6.07246 10.7392 6.27079 10.5 6.27079Z"
        fill="white" />
    <path
        d="M7.00033 11.2292C5.95616 11.2292 5.10449 10.3775 5.10449 9.33333C5.10449 8.28917 5.95616 7.4375 7.00033 7.4375C8.04449 7.4375 8.89616 8.28917 8.89616 9.33333C8.89616 10.3775 8.04449 11.2292 7.00033 11.2292ZM7.00033 8.3125C6.44033 8.3125 5.97949 8.77333 5.97949 9.33333C5.97949 9.89333 6.44033 10.3542 7.00033 10.3542C7.56033 10.3542 8.02116 9.89333 8.02116 9.33333C8.02116 8.77333 7.56033 8.3125 7.00033 8.3125Z"
        fill="white" />
    <path
        d="M9.91699 13.2709H4.08366C1.51116 13.2709 0.729492 12.4892 0.729492 9.91671V8.75004C0.729492 6.17754 1.51116 5.39587 4.08366 5.39587H9.91699C12.4895 5.39587 13.2712 6.17754 13.2712 8.75004V9.91671C13.2712 12.4892 12.4895 13.2709 9.91699 13.2709ZM4.08366 6.27087C1.99533 6.27087 1.60449 6.66754 1.60449 8.75004V9.91671C1.60449 11.9992 1.99533 12.3959 4.08366 12.3959H9.91699C12.0053 12.3959 12.3962 11.9992 12.3962 9.91671V8.75004C12.3962 6.66754 12.0053 6.27087 9.91699 6.27087H4.08366Z"
        fill="white" />
</svg>
    